<svg xmlns="http://www.w3.org/2000/svg" viewBox="0 0 64 64">
  <defs>
    <linearGradient id="g" x1="20" y1="2" x2="44" y2="62" gradientUnits="userSpaceOnUse">
      <stop offset="0" stop-color="#F6B03D"/>
      <stop offset="1" stop-color="#E8790F"/>
    </linearGradient>
  </defs>
  <rect width="64" height="64" rx="14" fill="#070C16"/>
  <g stroke="url(#g)" stroke-width="3.4" stroke-linecap="round" fill="none" transform="translate(32 32) scale(0.82) translate(-32 -32)">
    <path d="M 50.69 50.07 A 26 26 0 0 1 13.31 50.07"/>
    <path d="M 7.01 39.18 A 26 26 0 0 1 25.71 6.78"/>
    <path d="M 38.29 6.78 A 26 26 0 0 1 56.99 39.18"/>
    <path d="M 32 19.5 L 32 11"/>
    <path d="M 21.4 38.1 L 13.9 42.5"/>
    <path d="M 42.6 38.1 L 50.1 42.5"/>
  </g>
  <g fill="url(#g)" transform="translate(32 32) scale(0.82) translate(-32 -32)">
    <circle cx="32" cy="6.5" r="4.6"/>
    <circle cx="9.6" cy="45" r="4.6"/>
    <circle cx="54.4" cy="45" r="4.6"/>
    <circle cx="32" cy="32" r="12.8"/>
  </g>
  <text x="32" y="37.4" text-anchor="middle" font-family="Georgia, serif" font-weight="700" font-size="15" fill="#070C16">₹</text>
</svg>
